<svg xmlns="http://www.w3.org/2000/svg" viewBox="0 0 120.23 120" width="120.23" height="120">
    <path d="M120.23,115.05a4,4,0,0,0-2.05-3.45,4.55,4.55,0,0,0-3.89-6.91,2.46,2.46,0,0,0-.29,0v-.57s-1.28-2.34-2.56-2.34A14.47,14.47,0,0,0,110,102v-2h4V90h-3V81h3V70h-3V61h3V51h-3V42h3V31h-3V22h3V6H91V0H28V8H21V6H3V95H0v5H3v20H120v-2h-1.31a4.06,4.06,0,0,0,1.31-3M75,22h9v9H75V22m0,20h9v9H75V42m0,19h9v9H75V61m0,20h9v9H75V81M57,22h9v9H57V22m0,20h9v9H57V42m0,19h9v9H57V61m0,20h9v9H57V81M29,118H24V104h5v14m7,0H31V104h5v14m12,0H38V102H22v16H7V100H48v18m0-37V95H21V78H48v3m0-19V73H21V59H48v3m0-20V53H21V39H48v3m0-20V33H21V19H48v3m0-8H21V10H48v4m9,104H51v-2h6V100h9v16h9V100h9v16h8.3a3.55,3.55,0,0,0,2.26,2H57m36-12v-6h9v2.73a3.26,3.26,0,0,0-.66-.12,3.52,3.52,0,0,0-3.17,2,4.81,4.81,0,0,0-1.52-.27A4.67,4.67,0,0,0,93,106.14m2.4,8.56c-.64,0-1.16.65-1.16,0a1.16,1.16,0,1,1,2.32,0c0,.65-.52,0-1.17,0m1.25-6.3c-1.29,0-2.33,2-2.33.74a2.34,2.34,0,1,1,4.67,0c0,1.31-1-.74-2.34-.74m5.07,6.29c-1.28,0-2.33,1.8-2.33.5a2.32,2.32,0,1,1,4.64,0c0,1.3-1-.5-2.32-.5m2.93-9.35a1.57,1.57,0,1,1,3.15,0c0,.87-.7-.44-1.58-.44s-1.57,1.31-1.57.44m2.74,5.77c-.64,0-1.16.65-1.16,0a1.16,1.16,0,0,1,2.32,0c0,.65-.51,0-1.17,0M109,90H91V81h18v9m0-20H91V61h18v9m0-19H91V42h18v9m0-20H91V22h18v9m1.56,84.33c-.87,0-1.57,1.31-1.57.44a1.57,1.57,0,1,1,3.14,0c0,.87-.69-.44-1.57-.44m.41-7.58c-.64,0-1.16.85-1.16.2a1.16,1.16,0,0,1,1.16-1.18,1.17,1.17,0,0,1,1.17,1.18c0,.65-.53-.2-1.17-.2m2.78,3.58a1.16,1.16,0,1,1,2.32,0c0,.65-.51-.19-1.15-.19s-1.17.84-1.17.19M116,115.5c-.64,0-1.17.66-1.17,0a1.16,1.16,0,1,1,2.33,0c0,.66-.52,0-1.16,0"/>
</svg>
