<svg xmlns="http://www.w3.org/2000/svg" viewBox="0 0 365.58 104.11"><defs><style>.cls-1{fill:#0098d8;}.cls-2{fill:#9d9d9c;}</style></defs><title>logo</title><g id="Слой_2" data-name="Слой 2"><g id="Слой_1-2" data-name="Слой 1"><path d="M72.71,68.84a13.94,13.94,0,0,0-4.38-2,12.5,12.5,0,0,0,6.18-4.55q2.7-3.48,2.7-10.74,0-9.14-6-13.64T52.54,33.42H0v70.69H54.38a41.56,41.56,0,0,0,13.85-2,15.32,15.32,0,0,0,8.24-6.55Q79.25,91,79.25,83.32a18.77,18.77,0,0,0-2-9.29A14.38,14.38,0,0,0,72.71,68.84ZM7.34,40.56H55.4q7.73,0,11.05,2.91t3.32,8.9q0,6.44-3.41,8.83t-11,2.39H7.34ZM68.25,93.74Q64.6,97,57.24,97H7.34V70.72H56.62q7.58,0,11.44,2.91t3.85,9.7Q71.91,90.51,68.25,93.74Z"/><path d="M152.61,35.57q-5.44-2.15-14.31-2.15H90.63V104H98V74.9H138.4q9.25,0,14.53-1.65a13,13,0,0,0,7.75-5.9q2.46-4.24,2.46-12.1t-2.55-12.71A14.88,14.88,0,0,0,152.61,35.57Zm1.78,27.62a7.37,7.37,0,0,1-4.64,3.61,34.08,34.08,0,0,1-9.21,1H98V40.56h43.29q7.88,0,11.22,3.28t3.33,11.39Q155.8,60.55,154.39,63.2Z"/><path d="M253.3,72.11a15.83,15.83,0,0,0-8.53-6,48.58,48.58,0,0,0-15-1.93H198.17a46.76,46.76,0,0,1-11.42-1.06q-3.93-1.06-5.32-3.34A12.32,12.32,0,0,1,180,53.39a17.71,17.71,0,0,1,1.26-7.3,8.24,8.24,0,0,1,4.7-4.14q3.45-1.39,9.84-1.39h34a31.16,31.16,0,0,1,10.68,1.5,10.77,10.77,0,0,1,5.72,4.34,14.24,14.24,0,0,1,1.83,7h7.33q0-10-6.1-15t-17.94-5H195.74q-8.06,0-13.12,2a14.31,14.31,0,0,0-7.48,6.44q-2.43,4.4-2.42,11.49a26.58,26.58,0,0,0,1,8,11.74,11.74,0,0,0,3.59,5.47,17.15,17.15,0,0,0,7.2,3.36,49.43,49.43,0,0,0,11.6,1.15h35.56A32.77,32.77,0,0,1,242,72.59a9,9,0,0,1,5.18,4,15.22,15.22,0,0,1,1.51,7.36q0,6.79-4.06,9.91T232.19,97h-33.4a30,30,0,0,1-10.68-1.57A10.73,10.73,0,0,1,182.44,91a14.72,14.72,0,0,1-1.78-7h-7.34a21,21,0,0,0,2.78,11.18,16.91,16.91,0,0,0,7.95,6.76,30.83,30.83,0,0,0,12.27,2.22h36.48q8.23,0,13.19-1.9a13.62,13.62,0,0,0,7.35-6.27q2.39-4.37,2.69-11.8V82.73Q256,76.19,253.3,72.11Z"/><polygon class="cls-1" points="319.77 78.42 297.93 104.11 297.93 77.67 319.77 51.98 319.77 78.42"/><polygon class="cls-1" points="341.77 78.42 319.93 104.11 319.93 77.67 341.77 51.98 341.77 78.42"/><polygon class="cls-2" points="342.81 26.14 342.81 28.06 358.69 28.06 358.69 30.15 342.81 30.15 342.81 36.08 358.69 36.08 358.69 37.2 342.81 37.2 342.81 43.13 358.69 43.13 358.69 44.9 342.81 44.9 342.81 50.83 358.69 50.83 358.69 51.98 342.81 51.98 342.81 104.11 365.58 104.11 365.58 0 342.81 26.14"/></g></g></svg>